<svg width="71" height="37" viewBox="0 0 71 37" fill="none" xmlns="http://www.w3.org/2000/svg">
<path d="M31.4884 0.900024C31.977 0.900114 32.4073 1.08361 32.754 1.4303L32.8761 1.56409C33.1436 1.88538 33.2842 2.26824 33.2843 2.69592V22.3756C33.2843 26.7107 31.8715 30.0768 29.0001 32.3932L28.7179 32.6149C25.7331 34.87 21.9717 35.9801 17.4718 35.9801C13.1149 35.9801 9.40961 34.97 6.38486 32.9215L6.09482 32.7194C2.98828 30.5147 1.4201 27.4999 1.42001 23.7203C1.42001 23.3087 1.56269 22.938 1.85458 22.6461L1.97275 22.5377C2.25731 22.2981 2.59548 22.1638 2.97568 22.1637H12.7677C13.3337 22.1637 13.8466 22.3027 14.2257 22.653H14.2267C14.6129 22.9534 14.9406 23.4763 15.2354 24.1295L15.337 24.3317C15.5735 24.7792 15.8272 25.0869 16.086 25.2828C16.3884 25.4885 16.8483 25.6197 17.5196 25.6198C18.336 25.6198 18.8799 25.3488 19.2403 24.8541C19.6222 24.3299 19.8517 23.4822 19.8517 22.2321V11.6442H6.09579C5.6681 11.6441 5.28525 11.5035 4.96396 11.236L4.83017 11.1139C4.48345 10.7672 4.29996 10.3369 4.2999 9.84827V2.69592C4.29992 2.20721 4.48346 1.77704 4.83017 1.4303C5.17689 1.08357 5.6071 0.900079 6.09579 0.900024H31.4884ZM54.3917 0.900024C59.0654 0.900024 62.7874 1.90575 65.4962 3.97913L65.7481 4.17834C68.3176 6.26958 69.5801 9.28953 69.5802 13.1598C69.5802 17.1529 68.2349 20.1853 65.4845 22.1559L65.4854 22.1569C62.8086 24.0976 59.0901 25.0358 54.3917 25.0358H51.7716V33.7037C51.7716 34.1315 51.6309 34.5142 51.3634 34.8356L51.2413 34.9694C50.8945 35.3161 50.4645 35.4996 49.9757 35.4996H40.088C39.6604 35.4996 39.2774 35.3598 38.9561 35.0924L38.8224 34.9694C38.4756 34.6226 38.2921 34.1925 38.2921 33.7037V2.69592C38.2921 2.20719 38.4756 1.77705 38.8224 1.4303L38.9561 1.30823C39.2775 1.0407 39.6603 0.900024 40.088 0.900024H54.3917ZM51.5323 15.1559H54.3917C54.8296 15.1559 55.219 15.0036 55.5782 14.6735C55.9067 14.3424 56.0997 13.8607 56.0997 13.1598C56.0997 12.5242 55.9779 12.0067 55.754 11.5885L55.6524 11.4156C55.4108 11.0422 55.0265 10.8278 54.3917 10.8278H51.5323V15.1559Z" fill="black" stroke="white"/>
</svg>
