<svg width="1048" height="170" viewBox="0 0 1048 170" fill="none" xmlns="http://www.w3.org/2000/svg">
<mask id="path-1-outside-1_307_18" maskUnits="userSpaceOnUse" x="0" y="0" width="1048" height="170" fill="black">
<rect fill="white" width="1048" height="170"/>
<path d="M9.8322 12.64H74.2024C94.9391 12.64 111.14 17.104 122.804 26.032C134.469 34.96 140.301 48.136 140.301 65.56C140.301 82.984 134.469 95.872 122.804 104.224C111.284 112.576 95.0831 116.752 74.2024 116.752H60.1619V158.008C60.1619 159.592 59.5859 160.96 58.4339 162.112C57.2818 163.264 55.9138 163.84 54.3297 163.84H9.8322C8.24815 163.84 6.8801 163.264 5.72806 162.112C4.57602 160.96 4 159.592 4 158.008V18.472C4 16.888 4.57602 15.52 5.72806 14.368C6.8801 13.216 8.24815 12.64 9.8322 12.64ZM59.0819 52.816V76.792H74.2024C76.7945 76.792 79.0986 75.856 81.1147 73.984C83.1307 71.968 84.1388 69.16 84.1388 65.56C84.1388 61.96 83.3467 58.936 81.7627 56.488C80.1786 54.04 77.6585 52.816 74.2024 52.816H59.0819Z"/>
<path d="M154.252 115.024V100.336C154.252 83.92 160.084 71.32 171.748 62.536C183.413 53.752 198.461 49.36 216.894 49.36C235.327 49.36 250.375 53.752 262.039 62.536C273.704 71.32 279.536 83.92 279.536 100.336V115.024C279.536 131.584 273.92 144.256 262.687 153.04C251.455 161.68 236.191 166 216.894 166C197.597 166 182.333 161.68 171.1 153.04C159.868 144.256 154.252 131.584 154.252 115.024ZM226.614 116.752V98.608C226.614 93.136 225.894 89.32 224.454 87.16C223.014 85 220.494 83.92 216.894 83.92C213.294 83.92 210.774 85 209.334 87.16C207.894 89.32 207.174 93.136 207.174 98.608V116.752C207.174 122.512 207.894 126.4 209.334 128.416C210.774 130.432 213.294 131.44 216.894 131.44C220.494 131.44 223.014 130.36 224.454 128.2C225.894 126.04 226.614 122.224 226.614 116.752Z"/>
<path d="M345.287 57.352V64.912C355.367 55.984 366.599 51.52 378.984 51.52H389.352C390.936 51.52 392.304 52.096 393.456 53.248C394.608 54.4 395.184 55.768 395.184 57.352V91.048C395.184 92.632 394.608 94 393.456 95.152C392.304 96.304 390.936 96.88 389.352 96.88H361.487C357.599 96.88 354.503 97.816 352.199 99.688C350.039 101.416 348.815 103.792 348.527 106.816V158.008C348.527 159.592 347.951 160.96 346.799 162.112C345.647 163.264 344.279 163.84 342.695 163.84H301.653C300.069 163.84 298.701 163.264 297.549 162.112C296.397 160.96 295.821 159.592 295.821 158.008V57.352C295.821 55.768 296.397 54.4 297.549 53.248C298.701 52.096 300.069 51.52 301.653 51.52H339.455C341.039 51.52 342.407 52.096 343.559 53.248C344.711 54.4 345.287 55.768 345.287 57.352Z"/>
<path d="M477.326 89.32V113.08C477.326 120.28 480.422 123.88 486.615 123.88H506.271C507.855 123.88 509.223 124.456 510.376 125.608C511.528 126.76 512.104 128.128 512.104 129.712V158.008C512.104 159.592 511.528 160.96 510.376 162.112C509.223 163.264 507.855 163.84 506.271 163.84H481.863C445.861 163.84 427.861 148.36 427.861 117.4V89.32H410.796C409.212 89.32 407.844 88.744 406.692 87.592C405.54 86.44 404.964 85.072 404.964 83.488V57.352C404.964 55.768 405.54 54.4 406.692 53.248C407.844 52.096 409.212 51.52 410.796 51.52H427.861V16.312C427.861 14.728 428.437 13.36 429.589 12.208C430.741 11.056 432.109 10.48 433.693 10.48H471.494C473.078 10.48 474.446 11.056 475.598 12.208C476.75 13.36 477.326 14.728 477.326 16.312V51.52H504.543C506.127 51.52 507.495 52.096 508.647 53.248C509.799 54.4 510.376 55.768 510.376 57.352V83.488C510.376 85.072 509.799 86.44 508.647 87.592C507.495 88.744 506.127 89.32 504.543 89.32H477.326Z"/>
<path d="M589.92 48.928V51.52H614.329C615.913 51.52 617.281 52.096 618.433 53.248C619.585 54.4 620.161 55.768 620.161 57.352V83.488C620.161 85.072 619.585 86.44 618.433 87.592C617.281 88.744 615.913 89.32 614.329 89.32H589.92V158.008C589.92 159.592 589.344 160.96 588.192 162.112C587.04 163.264 585.672 163.84 584.088 163.84H546.287C544.703 163.84 543.335 163.264 542.183 162.112C541.031 160.96 540.455 159.592 540.455 158.008V89.32H525.55C523.966 89.32 522.598 88.744 521.446 87.592C520.294 86.44 519.718 85.072 519.718 83.488V57.352C519.718 55.768 520.294 54.4 521.446 53.248C522.598 52.096 523.966 51.52 525.55 51.52H540.455V47.848C540.455 31.432 545.423 20.056 555.359 13.72C565.295 7.24 579.048 4 596.616 4H616.705C618.289 4 619.657 4.576 620.809 5.72799C621.961 6.87999 622.537 8.24799 622.537 9.83199V35.968C622.537 37.552 621.961 38.92 620.809 40.072C619.657 41.224 618.289 41.8 616.705 41.8H599.209C593.016 41.8 589.92 44.176 589.92 48.928Z"/>
<path d="M634.362 115.024V100.336C634.362 83.92 640.194 71.32 651.859 62.536C663.523 53.752 678.572 49.36 697.004 49.36C715.437 49.36 730.485 53.752 742.15 62.536C753.814 71.32 759.646 83.92 759.646 100.336V115.024C759.646 131.584 754.03 144.256 742.798 153.04C731.565 161.68 716.301 166 697.004 166C677.708 166 662.443 161.68 651.211 153.04C639.978 144.256 634.362 131.584 634.362 115.024ZM706.725 116.752V98.608C706.725 93.136 706.005 89.32 704.565 87.16C703.124 85 700.604 83.92 697.004 83.92C693.404 83.92 690.884 85 689.444 87.16C688.004 89.32 687.284 93.136 687.284 98.608V116.752C687.284 122.512 688.004 126.4 689.444 128.416C690.884 130.432 693.404 131.44 697.004 131.44C700.604 131.44 703.124 130.36 704.565 128.2C706.005 126.04 706.725 122.224 706.725 116.752Z"/>
<path d="M822.589 163.84H783.924C782.34 163.84 780.972 163.264 779.819 162.112C778.667 160.96 778.091 159.592 778.091 158.008V16.312C778.091 14.728 778.667 13.36 779.819 12.208C780.972 11.056 782.34 10.48 783.924 10.48H822.589C824.173 10.48 825.541 11.056 826.693 12.208C827.845 13.36 828.421 14.728 828.421 16.312V158.008C828.421 159.592 827.845 160.96 826.693 162.112C825.541 163.264 824.173 163.84 822.589 163.84Z"/>
<path d="M894.521 163.84H855.856C854.272 163.84 852.904 163.264 851.752 162.112C850.6 160.96 850.024 159.592 850.024 158.008V57.352C850.024 55.768 850.6 54.4 851.752 53.248C852.904 52.096 854.272 51.52 855.856 51.52H894.521C896.105 51.52 897.473 52.096 898.625 53.248C899.777 54.4 900.353 55.768 900.353 57.352V158.008C900.353 159.592 899.777 160.96 898.625 162.112C897.473 163.264 896.105 163.84 894.521 163.84ZM899.273 9.83199V35.968C899.273 37.552 898.697 38.92 897.545 40.072C896.393 41.224 895.025 41.8 893.441 41.8H856.936C855.352 41.8 853.984 41.224 852.832 40.072C851.68 38.92 851.104 37.552 851.104 35.968V9.83199C851.104 8.24799 851.68 6.87999 852.832 5.72799C853.984 4.576 855.352 4 856.936 4H893.441C895.025 4 896.393 4.576 897.545 5.72799C898.697 6.87999 899.273 8.24799 899.273 9.83199Z"/>
<path d="M918.716 115.024V100.336C918.716 83.92 924.548 71.32 936.212 62.536C947.877 53.752 962.925 49.36 981.358 49.36C999.79 49.36 1014.84 53.752 1026.5 62.536C1038.17 71.32 1044 83.92 1044 100.336V115.024C1044 131.584 1038.38 144.256 1027.15 153.04C1015.92 161.68 1000.65 166 981.358 166C962.061 166 946.797 161.68 935.564 153.04C924.332 144.256 918.716 131.584 918.716 115.024ZM991.078 116.752V98.608C991.078 93.136 990.358 89.32 988.918 87.16C987.478 85 984.958 83.92 981.358 83.92C977.758 83.92 975.238 85 973.798 87.16C972.358 89.32 971.638 93.136 971.638 98.608V116.752C971.638 122.512 972.358 126.4 973.798 128.416C975.238 130.432 977.758 131.44 981.358 131.44C984.958 131.44 987.478 130.36 988.918 128.2C990.358 126.04 991.078 122.224 991.078 116.752Z"/>
</mask>
<path d="M9.8322 12.64H74.2024C94.9391 12.64 111.14 17.104 122.804 26.032C134.469 34.96 140.301 48.136 140.301 65.56C140.301 82.984 134.469 95.872 122.804 104.224C111.284 112.576 95.0831 116.752 74.2024 116.752H60.1619V158.008C60.1619 159.592 59.5859 160.96 58.4339 162.112C57.2818 163.264 55.9138 163.84 54.3297 163.84H9.8322C8.24815 163.84 6.8801 163.264 5.72806 162.112C4.57602 160.96 4 159.592 4 158.008V18.472C4 16.888 4.57602 15.52 5.72806 14.368C6.8801 13.216 8.24815 12.64 9.8322 12.64ZM59.0819 52.816V76.792H74.2024C76.7945 76.792 79.0986 75.856 81.1147 73.984C83.1307 71.968 84.1388 69.16 84.1388 65.56C84.1388 61.96 83.3467 58.936 81.7627 56.488C80.1786 54.04 77.6585 52.816 74.2024 52.816H59.0819Z" fill="#EF4732"/>
<path d="M154.252 115.024V100.336C154.252 83.92 160.084 71.32 171.748 62.536C183.413 53.752 198.461 49.36 216.894 49.36C235.327 49.36 250.375 53.752 262.039 62.536C273.704 71.32 279.536 83.92 279.536 100.336V115.024C279.536 131.584 273.92 144.256 262.687 153.04C251.455 161.68 236.191 166 216.894 166C197.597 166 182.333 161.68 171.1 153.04C159.868 144.256 154.252 131.584 154.252 115.024ZM226.614 116.752V98.608C226.614 93.136 225.894 89.32 224.454 87.16C223.014 85 220.494 83.92 216.894 83.92C213.294 83.92 210.774 85 209.334 87.16C207.894 89.32 207.174 93.136 207.174 98.608V116.752C207.174 122.512 207.894 126.4 209.334 128.416C210.774 130.432 213.294 131.44 216.894 131.44C220.494 131.44 223.014 130.36 224.454 128.2C225.894 126.04 226.614 122.224 226.614 116.752Z" fill="#EF4732"/>
<path d="M345.287 57.352V64.912C355.367 55.984 366.599 51.52 378.984 51.52H389.352C390.936 51.52 392.304 52.096 393.456 53.248C394.608 54.4 395.184 55.768 395.184 57.352V91.048C395.184 92.632 394.608 94 393.456 95.152C392.304 96.304 390.936 96.88 389.352 96.88H361.487C357.599 96.88 354.503 97.816 352.199 99.688C350.039 101.416 348.815 103.792 348.527 106.816V158.008C348.527 159.592 347.951 160.96 346.799 162.112C345.647 163.264 344.279 163.84 342.695 163.84H301.653C300.069 163.84 298.701 163.264 297.549 162.112C296.397 160.96 295.821 159.592 295.821 158.008V57.352C295.821 55.768 296.397 54.4 297.549 53.248C298.701 52.096 300.069 51.52 301.653 51.52H339.455C341.039 51.52 342.407 52.096 343.559 53.248C344.711 54.4 345.287 55.768 345.287 57.352Z" fill="#EF4732"/>
<path d="M477.326 89.32V113.08C477.326 120.28 480.422 123.88 486.615 123.88H506.271C507.855 123.88 509.223 124.456 510.376 125.608C511.528 126.76 512.104 128.128 512.104 129.712V158.008C512.104 159.592 511.528 160.96 510.376 162.112C509.223 163.264 507.855 163.84 506.271 163.84H481.863C445.861 163.84 427.861 148.36 427.861 117.4V89.32H410.796C409.212 89.32 407.844 88.744 406.692 87.592C405.54 86.44 404.964 85.072 404.964 83.488V57.352C404.964 55.768 405.54 54.4 406.692 53.248C407.844 52.096 409.212 51.52 410.796 51.52H427.861V16.312C427.861 14.728 428.437 13.36 429.589 12.208C430.741 11.056 432.109 10.48 433.693 10.48H471.494C473.078 10.48 474.446 11.056 475.598 12.208C476.75 13.36 477.326 14.728 477.326 16.312V51.52H504.543C506.127 51.52 507.495 52.096 508.647 53.248C509.799 54.4 510.376 55.768 510.376 57.352V83.488C510.376 85.072 509.799 86.44 508.647 87.592C507.495 88.744 506.127 89.32 504.543 89.32H477.326Z" fill="#EF4732"/>
<path d="M589.92 48.928V51.52H614.329C615.913 51.52 617.281 52.096 618.433 53.248C619.585 54.4 620.161 55.768 620.161 57.352V83.488C620.161 85.072 619.585 86.44 618.433 87.592C617.281 88.744 615.913 89.32 614.329 89.32H589.92V158.008C589.92 159.592 589.344 160.96 588.192 162.112C587.04 163.264 585.672 163.84 584.088 163.84H546.287C544.703 163.84 543.335 163.264 542.183 162.112C541.031 160.96 540.455 159.592 540.455 158.008V89.32H525.55C523.966 89.32 522.598 88.744 521.446 87.592C520.294 86.44 519.718 85.072 519.718 83.488V57.352C519.718 55.768 520.294 54.4 521.446 53.248C522.598 52.096 523.966 51.52 525.55 51.52H540.455V47.848C540.455 31.432 545.423 20.056 555.359 13.72C565.295 7.24 579.048 4 596.616 4H616.705C618.289 4 619.657 4.576 620.809 5.72799C621.961 6.87999 622.537 8.24799 622.537 9.83199V35.968C622.537 37.552 621.961 38.92 620.809 40.072C619.657 41.224 618.289 41.8 616.705 41.8H599.209C593.016 41.8 589.92 44.176 589.92 48.928Z" fill="#EF4732"/>
<path d="M634.362 115.024V100.336C634.362 83.92 640.194 71.32 651.859 62.536C663.523 53.752 678.572 49.36 697.004 49.36C715.437 49.36 730.485 53.752 742.15 62.536C753.814 71.32 759.646 83.92 759.646 100.336V115.024C759.646 131.584 754.03 144.256 742.798 153.04C731.565 161.68 716.301 166 697.004 166C677.708 166 662.443 161.68 651.211 153.04C639.978 144.256 634.362 131.584 634.362 115.024ZM706.725 116.752V98.608C706.725 93.136 706.005 89.32 704.565 87.16C703.124 85 700.604 83.92 697.004 83.92C693.404 83.92 690.884 85 689.444 87.16C688.004 89.32 687.284 93.136 687.284 98.608V116.752C687.284 122.512 688.004 126.4 689.444 128.416C690.884 130.432 693.404 131.44 697.004 131.44C700.604 131.44 703.124 130.36 704.565 128.2C706.005 126.04 706.725 122.224 706.725 116.752Z" fill="#EF4732"/>
<path d="M822.589 163.84H783.924C782.34 163.84 780.972 163.264 779.819 162.112C778.667 160.96 778.091 159.592 778.091 158.008V16.312C778.091 14.728 778.667 13.36 779.819 12.208C780.972 11.056 782.34 10.48 783.924 10.48H822.589C824.173 10.48 825.541 11.056 826.693 12.208C827.845 13.36 828.421 14.728 828.421 16.312V158.008C828.421 159.592 827.845 160.96 826.693 162.112C825.541 163.264 824.173 163.84 822.589 163.84Z" fill="#EF4732"/>
<path d="M894.521 163.84H855.856C854.272 163.84 852.904 163.264 851.752 162.112C850.6 160.96 850.024 159.592 850.024 158.008V57.352C850.024 55.768 850.6 54.4 851.752 53.248C852.904 52.096 854.272 51.52 855.856 51.52H894.521C896.105 51.52 897.473 52.096 898.625 53.248C899.777 54.4 900.353 55.768 900.353 57.352V158.008C900.353 159.592 899.777 160.96 898.625 162.112C897.473 163.264 896.105 163.84 894.521 163.84ZM899.273 9.83199V35.968C899.273 37.552 898.697 38.92 897.545 40.072C896.393 41.224 895.025 41.8 893.441 41.8H856.936C855.352 41.8 853.984 41.224 852.832 40.072C851.68 38.92 851.104 37.552 851.104 35.968V9.83199C851.104 8.24799 851.68 6.87999 852.832 5.72799C853.984 4.576 855.352 4 856.936 4H893.441C895.025 4 896.393 4.576 897.545 5.72799C898.697 6.87999 899.273 8.24799 899.273 9.83199Z" fill="#EF4732"/>
<path d="M918.716 115.024V100.336C918.716 83.92 924.548 71.32 936.212 62.536C947.877 53.752 962.925 49.36 981.358 49.36C999.79 49.36 1014.84 53.752 1026.5 62.536C1038.17 71.32 1044 83.92 1044 100.336V115.024C1044 131.584 1038.38 144.256 1027.15 153.04C1015.92 161.68 1000.65 166 981.358 166C962.061 166 946.797 161.68 935.564 153.04C924.332 144.256 918.716 131.584 918.716 115.024ZM991.078 116.752V98.608C991.078 93.136 990.358 89.32 988.918 87.16C987.478 85 984.958 83.92 981.358 83.92C977.758 83.92 975.238 85 973.798 87.16C972.358 89.32 971.638 93.136 971.638 98.608V116.752C971.638 122.512 972.358 126.4 973.798 128.416C975.238 130.432 977.758 131.44 981.358 131.44C984.958 131.44 987.478 130.36 988.918 128.2C990.358 126.04 991.078 122.224 991.078 116.752Z" fill="#EF4732"/>
<path d="M9.8322 12.64H74.2024C94.9391 12.64 111.14 17.104 122.804 26.032C134.469 34.96 140.301 48.136 140.301 65.56C140.301 82.984 134.469 95.872 122.804 104.224C111.284 112.576 95.0831 116.752 74.2024 116.752H60.1619V158.008C60.1619 159.592 59.5859 160.96 58.4339 162.112C57.2818 163.264 55.9138 163.84 54.3297 163.84H9.8322C8.24815 163.84 6.8801 163.264 5.72806 162.112C4.57602 160.96 4 159.592 4 158.008V18.472C4 16.888 4.57602 15.52 5.72806 14.368C6.8801 13.216 8.24815 12.64 9.8322 12.64ZM59.0819 52.816V76.792H74.2024C76.7945 76.792 79.0986 75.856 81.1147 73.984C83.1307 71.968 84.1388 69.16 84.1388 65.56C84.1388 61.96 83.3467 58.936 81.7627 56.488C80.1786 54.04 77.6585 52.816 74.2024 52.816H59.0819Z" stroke="white" stroke-width="8" mask="url(#path-1-outside-1_307_18)"/>
<path d="M154.252 115.024V100.336C154.252 83.92 160.084 71.32 171.748 62.536C183.413 53.752 198.461 49.36 216.894 49.36C235.327 49.36 250.375 53.752 262.039 62.536C273.704 71.32 279.536 83.92 279.536 100.336V115.024C279.536 131.584 273.92 144.256 262.687 153.04C251.455 161.68 236.191 166 216.894 166C197.597 166 182.333 161.68 171.1 153.04C159.868 144.256 154.252 131.584 154.252 115.024ZM226.614 116.752V98.608C226.614 93.136 225.894 89.32 224.454 87.16C223.014 85 220.494 83.92 216.894 83.92C213.294 83.92 210.774 85 209.334 87.16C207.894 89.32 207.174 93.136 207.174 98.608V116.752C207.174 122.512 207.894 126.4 209.334 128.416C210.774 130.432 213.294 131.44 216.894 131.44C220.494 131.44 223.014 130.36 224.454 128.2C225.894 126.04 226.614 122.224 226.614 116.752Z" stroke="white" stroke-width="8" mask="url(#path-1-outside-1_307_18)"/>
<path d="M345.287 57.352V64.912C355.367 55.984 366.599 51.52 378.984 51.52H389.352C390.936 51.52 392.304 52.096 393.456 53.248C394.608 54.4 395.184 55.768 395.184 57.352V91.048C395.184 92.632 394.608 94 393.456 95.152C392.304 96.304 390.936 96.88 389.352 96.88H361.487C357.599 96.88 354.503 97.816 352.199 99.688C350.039 101.416 348.815 103.792 348.527 106.816V158.008C348.527 159.592 347.951 160.96 346.799 162.112C345.647 163.264 344.279 163.84 342.695 163.84H301.653C300.069 163.84 298.701 163.264 297.549 162.112C296.397 160.96 295.821 159.592 295.821 158.008V57.352C295.821 55.768 296.397 54.4 297.549 53.248C298.701 52.096 300.069 51.52 301.653 51.52H339.455C341.039 51.52 342.407 52.096 343.559 53.248C344.711 54.4 345.287 55.768 345.287 57.352Z" stroke="white" stroke-width="8" mask="url(#path-1-outside-1_307_18)"/>
<path d="M477.326 89.32V113.08C477.326 120.28 480.422 123.88 486.615 123.88H506.271C507.855 123.88 509.223 124.456 510.376 125.608C511.528 126.76 512.104 128.128 512.104 129.712V158.008C512.104 159.592 511.528 160.96 510.376 162.112C509.223 163.264 507.855 163.84 506.271 163.84H481.863C445.861 163.84 427.861 148.36 427.861 117.4V89.32H410.796C409.212 89.32 407.844 88.744 406.692 87.592C405.54 86.44 404.964 85.072 404.964 83.488V57.352C404.964 55.768 405.54 54.4 406.692 53.248C407.844 52.096 409.212 51.52 410.796 51.52H427.861V16.312C427.861 14.728 428.437 13.36 429.589 12.208C430.741 11.056 432.109 10.48 433.693 10.48H471.494C473.078 10.48 474.446 11.056 475.598 12.208C476.75 13.36 477.326 14.728 477.326 16.312V51.52H504.543C506.127 51.52 507.495 52.096 508.647 53.248C509.799 54.4 510.376 55.768 510.376 57.352V83.488C510.376 85.072 509.799 86.44 508.647 87.592C507.495 88.744 506.127 89.32 504.543 89.32H477.326Z" stroke="white" stroke-width="8" mask="url(#path-1-outside-1_307_18)"/>
<path d="M589.92 48.928V51.52H614.329C615.913 51.52 617.281 52.096 618.433 53.248C619.585 54.4 620.161 55.768 620.161 57.352V83.488C620.161 85.072 619.585 86.44 618.433 87.592C617.281 88.744 615.913 89.32 614.329 89.32H589.92V158.008C589.92 159.592 589.344 160.96 588.192 162.112C587.04 163.264 585.672 163.84 584.088 163.84H546.287C544.703 163.84 543.335 163.264 542.183 162.112C541.031 160.96 540.455 159.592 540.455 158.008V89.32H525.55C523.966 89.32 522.598 88.744 521.446 87.592C520.294 86.44 519.718 85.072 519.718 83.488V57.352C519.718 55.768 520.294 54.4 521.446 53.248C522.598 52.096 523.966 51.52 525.55 51.52H540.455V47.848C540.455 31.432 545.423 20.056 555.359 13.72C565.295 7.24 579.048 4 596.616 4H616.705C618.289 4 619.657 4.576 620.809 5.72799C621.961 6.87999 622.537 8.24799 622.537 9.83199V35.968C622.537 37.552 621.961 38.92 620.809 40.072C619.657 41.224 618.289 41.8 616.705 41.8H599.209C593.016 41.8 589.92 44.176 589.92 48.928Z" stroke="white" stroke-width="8" mask="url(#path-1-outside-1_307_18)"/>
<path d="M634.362 115.024V100.336C634.362 83.92 640.194 71.32 651.859 62.536C663.523 53.752 678.572 49.36 697.004 49.36C715.437 49.36 730.485 53.752 742.15 62.536C753.814 71.32 759.646 83.92 759.646 100.336V115.024C759.646 131.584 754.03 144.256 742.798 153.04C731.565 161.68 716.301 166 697.004 166C677.708 166 662.443 161.68 651.211 153.04C639.978 144.256 634.362 131.584 634.362 115.024ZM706.725 116.752V98.608C706.725 93.136 706.005 89.32 704.565 87.16C703.124 85 700.604 83.92 697.004 83.92C693.404 83.92 690.884 85 689.444 87.16C688.004 89.32 687.284 93.136 687.284 98.608V116.752C687.284 122.512 688.004 126.4 689.444 128.416C690.884 130.432 693.404 131.44 697.004 131.44C700.604 131.44 703.124 130.36 704.565 128.2C706.005 126.04 706.725 122.224 706.725 116.752Z" stroke="white" stroke-width="8" mask="url(#path-1-outside-1_307_18)"/>
<path d="M822.589 163.84H783.924C782.34 163.84 780.972 163.264 779.819 162.112C778.667 160.96 778.091 159.592 778.091 158.008V16.312C778.091 14.728 778.667 13.36 779.819 12.208C780.972 11.056 782.34 10.48 783.924 10.48H822.589C824.173 10.48 825.541 11.056 826.693 12.208C827.845 13.36 828.421 14.728 828.421 16.312V158.008C828.421 159.592 827.845 160.96 826.693 162.112C825.541 163.264 824.173 163.84 822.589 163.84Z" stroke="white" stroke-width="8" mask="url(#path-1-outside-1_307_18)"/>
<path d="M894.521 163.84H855.856C854.272 163.84 852.904 163.264 851.752 162.112C850.6 160.96 850.024 159.592 850.024 158.008V57.352C850.024 55.768 850.6 54.4 851.752 53.248C852.904 52.096 854.272 51.52 855.856 51.52H894.521C896.105 51.52 897.473 52.096 898.625 53.248C899.777 54.4 900.353 55.768 900.353 57.352V158.008C900.353 159.592 899.777 160.96 898.625 162.112C897.473 163.264 896.105 163.84 894.521 163.84ZM899.273 9.83199V35.968C899.273 37.552 898.697 38.92 897.545 40.072C896.393 41.224 895.025 41.8 893.441 41.8H856.936C855.352 41.8 853.984 41.224 852.832 40.072C851.68 38.92 851.104 37.552 851.104 35.968V9.83199C851.104 8.24799 851.68 6.87999 852.832 5.72799C853.984 4.576 855.352 4 856.936 4H893.441C895.025 4 896.393 4.576 897.545 5.72799C898.697 6.87999 899.273 8.24799 899.273 9.83199Z" stroke="white" stroke-width="8" mask="url(#path-1-outside-1_307_18)"/>
<path d="M918.716 115.024V100.336C918.716 83.92 924.548 71.32 936.212 62.536C947.877 53.752 962.925 49.36 981.358 49.36C999.79 49.36 1014.84 53.752 1026.5 62.536C1038.17 71.32 1044 83.92 1044 100.336V115.024C1044 131.584 1038.38 144.256 1027.15 153.04C1015.92 161.68 1000.65 166 981.358 166C962.061 166 946.797 161.68 935.564 153.04C924.332 144.256 918.716 131.584 918.716 115.024ZM991.078 116.752V98.608C991.078 93.136 990.358 89.32 988.918 87.16C987.478 85 984.958 83.92 981.358 83.92C977.758 83.92 975.238 85 973.798 87.16C972.358 89.32 971.638 93.136 971.638 98.608V116.752C971.638 122.512 972.358 126.4 973.798 128.416C975.238 130.432 977.758 131.44 981.358 131.44C984.958 131.44 987.478 130.36 988.918 128.2C990.358 126.04 991.078 122.224 991.078 116.752Z" stroke="white" stroke-width="8" mask="url(#path-1-outside-1_307_18)"/>
</svg>
