<svg width="250" height="49" viewBox="0 0 250 49" fill="none" xmlns="http://www.w3.org/2000/svg">
<mask id="path-1-outside-1_227_58" maskUnits="userSpaceOnUse" x="0" y="0" width="250" height="49" fill="black">
<rect fill="white" width="250" height="49"/>
<path d="M31.864 4.216V23.896C31.864 28.248 30.408 31.528 27.496 33.736C24.616 35.912 20.968 37 16.552 37C12.136 37 8.44 35.944 5.464 33.832C2.488 31.72 1 28.856 1 25.24C1 24.952 1.096 24.712 1.288 24.52C1.512 24.296 1.768 24.184 2.056 24.184H11.848C12.36 24.184 12.744 24.312 13 24.568C13.288 24.792 13.576 25.224 13.864 25.864C14.152 26.472 14.488 26.92 14.872 27.208C15.288 27.496 15.864 27.64 16.6 27.64C18.488 27.64 19.432 26.344 19.432 23.752V12.664H5.176C4.824 12.664 4.52 12.536 4.264 12.28C4.008 12.024 3.88 11.72 3.88 11.368V4.216C3.88 3.864 4.008 3.56 4.264 3.304C4.52 3.048 4.824 2.92 5.176 2.92H30.568C30.92 2.92 31.224 3.048 31.48 3.304C31.736 3.56 31.864 3.864 31.864 4.216Z"/>
<path d="M36.4319 29.368C36.4319 25.048 39.9359 22.28 46.9439 21.064L52.0319 20.248C52.0319 19.288 51.9519 18.648 51.7919 18.328C51.6319 17.976 51.2479 17.8 50.6399 17.8C50.0639 17.8 49.4879 18.056 48.9119 18.568C48.3359 19.08 47.7919 19.336 47.2799 19.336H39.1199C38.4159 19.336 38.0639 19 38.0639 18.328C38.0639 17.624 38.3039 16.888 38.7839 16.12C39.2959 15.32 40.0159 14.536 40.9439 13.768C41.9039 13 43.2319 12.36 44.9279 11.848C46.6559 11.336 48.5759 11.08 50.6879 11.08C54.9759 11.08 58.1919 11.976 60.3359 13.768C62.4799 15.56 63.5519 18.12 63.5519 21.448V35.224C63.5519 35.576 63.4239 35.88 63.1679 36.136C62.9119 36.392 62.6079 36.52 62.2559 36.52H53.8559C53.5039 36.52 53.1999 36.392 52.9439 36.136C52.6879 35.88 52.5599 35.576 52.5599 35.224V33.88C51.0559 35.96 48.8639 37 45.9839 37C43.1039 37 40.7839 36.28 39.0239 34.84C37.2959 33.368 36.4319 31.544 36.4319 29.368ZM49.0559 29.896C51.1359 29.896 52.1759 28.648 52.1759 26.152L49.3439 26.776C47.9359 27.096 47.2319 27.688 47.2319 28.552C47.2319 28.936 47.3919 29.256 47.7119 29.512C48.0319 29.768 48.4799 29.896 49.0559 29.896Z"/>
<path d="M96.0734 19.672C95.5614 19.672 95.1134 19.864 94.7294 20.248C94.3774 20.632 94.2014 21.208 94.2014 21.976V35.224C94.2014 35.576 94.0734 35.88 93.8174 36.136C93.5614 36.392 93.2574 36.52 92.9054 36.52H84.4574C84.1054 36.52 83.8014 36.392 83.5454 36.136C83.2894 35.88 83.1614 35.576 83.1614 35.224V22.312C83.1614 20.552 82.5214 19.672 81.2414 19.672C80.6974 19.672 80.2334 19.88 79.8494 20.296C79.4974 20.68 79.3214 21.224 79.3214 21.928V35.224C79.3214 35.576 79.1934 35.88 78.9374 36.136C78.6814 36.392 78.3774 36.52 78.0254 36.52H69.3854C69.0334 36.52 68.7294 36.392 68.4734 36.136C68.2174 35.88 68.0894 35.576 68.0894 35.224V12.856C68.0894 12.504 68.2174 12.2 68.4734 11.944C68.7294 11.688 69.0334 11.56 69.3854 11.56H77.3054C77.6574 11.56 77.9614 11.688 78.2174 11.944C78.4734 12.2 78.6014 12.504 78.6014 12.856V14.44C79.2414 13.608 80.1534 12.856 81.3374 12.184C82.6494 11.448 84.1214 11.08 85.7534 11.08C89.2734 11.08 91.6414 12.392 92.8574 15.016C93.6254 13.896 94.6814 12.968 96.0254 12.232C97.3694 11.464 98.7614 11.08 100.201 11.08C102.793 11.08 104.905 11.992 106.537 13.816C108.201 15.64 109.033 18.36 109.033 21.976V35.224C109.033 35.576 108.905 35.88 108.649 36.136C108.393 36.392 108.089 36.52 107.737 36.52H99.2894C98.9374 36.52 98.6334 36.392 98.3774 36.136C98.1214 35.88 97.9934 35.576 97.9934 35.224V22.312C97.9934 20.552 97.3534 19.672 96.0734 19.672Z"/>
<path d="M138.949 26.872H124.645V27.112C124.645 29.064 125.269 30.04 126.517 30.04C126.869 30.04 127.301 29.784 127.813 29.272C128.325 28.76 128.885 28.504 129.493 28.504H138.565C139.269 28.504 139.621 28.856 139.621 29.56C139.621 31.128 138.437 32.76 136.069 34.456C133.733 36.152 130.549 37 126.517 37C122.517 37 119.237 35.96 116.677 33.88C114.149 31.768 112.885 28.872 112.885 25.192V22.888C112.885 19.4 114.181 16.568 116.773 14.392C119.365 12.184 122.757 11.08 126.949 11.08C131.173 11.08 134.437 12.312 136.741 14.776C139.077 17.24 140.245 20.36 140.245 24.136V25.576C140.245 25.928 140.117 26.232 139.861 26.488C139.605 26.744 139.301 26.872 138.949 26.872ZM128.485 20.68C128.485 18.76 127.845 17.8 126.565 17.8C125.285 17.8 124.645 18.76 124.645 20.68V20.872H128.485V20.68Z"/>
<path d="M157.604 29.608C157.604 29.288 157.524 29.032 157.364 28.84C156.948 28.328 155.412 27.832 152.756 27.352C150.1 26.84 147.94 25.96 146.276 24.712C144.644 23.432 143.828 21.656 143.828 19.384C143.828 17.112 144.916 15.16 147.092 13.528C149.268 11.896 152.196 11.08 155.876 11.08C159.588 11.08 162.628 11.848 164.996 13.384C167.364 14.92 168.548 16.472 168.548 18.04C168.548 18.392 168.436 18.696 168.212 18.952C168.02 19.208 167.78 19.336 167.492 19.336H159.428C158.948 19.336 158.356 19.08 157.652 18.568C156.948 18.056 156.42 17.8 156.068 17.8C155.332 17.8 154.964 18.056 154.964 18.568C154.964 18.888 155.044 19.144 155.204 19.336C155.62 19.816 157.364 20.28 160.436 20.728C163.508 21.176 165.796 22.168 167.3 23.704C168.836 25.208 169.604 26.888 169.604 28.744C169.604 31.336 168.436 33.368 166.1 34.84C163.764 36.312 160.452 37.048 156.164 37.048C153.892 37.048 151.876 36.792 150.116 36.28C148.356 35.768 147.012 35.128 146.084 34.36C144.26 32.856 143.348 31.448 143.348 30.136C143.348 29.784 143.46 29.48 143.684 29.224C143.908 28.968 144.18 28.84 144.5 28.84H152.852C153.3 28.84 153.876 29.096 154.58 29.608C155.316 30.088 156.004 30.328 156.644 30.328C157.284 30.328 157.604 30.088 157.604 29.608Z"/>
<path d="M201.309 22.168V25.96C201.309 29.544 200.349 32.28 198.429 34.168C196.509 36.056 194.157 37 191.373 37C188.621 37 186.413 36.248 184.749 34.744V44.344C184.749 44.696 184.621 45 184.365 45.256C184.109 45.512 183.805 45.64 183.453 45.64H174.573C174.221 45.64 173.917 45.512 173.661 45.256C173.405 45 173.277 44.696 173.277 44.344V12.856C173.277 12.504 173.405 12.2 173.661 11.944C173.917 11.688 174.221 11.56 174.573 11.56H182.733C183.085 11.56 183.389 11.688 183.645 11.944C183.901 12.2 184.029 12.504 184.029 12.856V14.296C185.693 12.152 188.045 11.08 191.085 11.08C194.125 11.08 196.589 11.992 198.477 13.816C200.365 15.608 201.309 18.392 201.309 22.168ZM184.749 22.456V26.008C184.845 27.608 185.645 28.408 187.149 28.408C188.749 28.408 189.549 27.48 189.549 25.624V22.456C189.549 20.6 188.749 19.672 187.149 19.672C185.549 19.672 184.749 20.6 184.749 22.456Z"/>
<path d="M215.274 36.52H206.682C206.33 36.52 206.026 36.392 205.77 36.136C205.514 35.88 205.386 35.576 205.386 35.224V12.856C205.386 12.504 205.514 12.2 205.77 11.944C206.026 11.688 206.33 11.56 206.682 11.56H215.274C215.626 11.56 215.93 11.688 216.186 11.944C216.442 12.2 216.57 12.504 216.57 12.856V35.224C216.57 35.576 216.442 35.88 216.186 36.136C215.93 36.392 215.626 36.52 215.274 36.52ZM216.33 2.296V8.104C216.33 8.456 216.202 8.76 215.946 9.016C215.69 9.272 215.386 9.4 215.034 9.4H206.922C206.57 9.4 206.266 9.272 206.01 9.016C205.754 8.76 205.626 8.456 205.626 8.104V2.296C205.626 1.944 205.754 1.64 206.01 1.384C206.266 1.128 206.57 1 206.922 1H215.034C215.386 1 215.69 1.128 215.946 1.384C216.202 1.64 216.33 1.944 216.33 2.296Z"/>
<path d="M220.651 24.568V22.12C220.651 18.536 221.611 15.8 223.531 13.912C225.451 12.024 227.899 11.08 230.875 11.08C233.851 11.08 236.203 12.168 237.931 14.344V12.856C237.931 12.504 238.059 12.2 238.315 11.944C238.571 11.688 238.875 11.56 239.227 11.56H247.627C247.979 11.56 248.283 11.688 248.539 11.944C248.795 12.2 248.923 12.504 248.923 12.856L248.971 35.704C248.971 39.544 247.723 42.392 245.227 44.248C242.731 46.136 239.451 47.08 235.387 47.08C232.859 47.08 230.603 46.728 228.619 46.024C226.635 45.352 225.147 44.52 224.155 43.528C222.139 41.544 221.131 39.864 221.131 38.488C221.131 38.136 221.259 37.832 221.515 37.576C221.771 37.32 222.075 37.192 222.427 37.192H231.787C232.363 37.192 232.827 37.544 233.179 38.248C233.563 38.984 234.219 39.352 235.147 39.352C236.523 39.352 237.211 38.488 237.211 36.76V33.352C235.643 34.728 233.419 35.416 230.539 35.416C227.691 35.416 225.323 34.552 223.435 32.824C221.579 31.096 220.651 28.344 220.651 24.568ZM234.811 27.064C236.315 27.064 237.115 26.264 237.211 24.664V22.072C237.115 20.472 236.315 19.672 234.811 19.672C233.211 19.672 232.411 20.6 232.411 22.456V24.28C232.411 26.136 233.211 27.064 234.811 27.064Z"/>
</mask>
<path d="M31.864 4.216V23.896C31.864 28.248 30.408 31.528 27.496 33.736C24.616 35.912 20.968 37 16.552 37C12.136 37 8.44 35.944 5.464 33.832C2.488 31.72 1 28.856 1 25.24C1 24.952 1.096 24.712 1.288 24.52C1.512 24.296 1.768 24.184 2.056 24.184H11.848C12.36 24.184 12.744 24.312 13 24.568C13.288 24.792 13.576 25.224 13.864 25.864C14.152 26.472 14.488 26.92 14.872 27.208C15.288 27.496 15.864 27.64 16.6 27.64C18.488 27.64 19.432 26.344 19.432 23.752V12.664H5.176C4.824 12.664 4.52 12.536 4.264 12.28C4.008 12.024 3.88 11.72 3.88 11.368V4.216C3.88 3.864 4.008 3.56 4.264 3.304C4.52 3.048 4.824 2.92 5.176 2.92H30.568C30.92 2.92 31.224 3.048 31.48 3.304C31.736 3.56 31.864 3.864 31.864 4.216Z" fill="black"/>
<path d="M36.4319 29.368C36.4319 25.048 39.9359 22.28 46.9439 21.064L52.0319 20.248C52.0319 19.288 51.9519 18.648 51.7919 18.328C51.6319 17.976 51.2479 17.8 50.6399 17.8C50.0639 17.8 49.4879 18.056 48.9119 18.568C48.3359 19.08 47.7919 19.336 47.2799 19.336H39.1199C38.4159 19.336 38.0639 19 38.0639 18.328C38.0639 17.624 38.3039 16.888 38.7839 16.12C39.2959 15.32 40.0159 14.536 40.9439 13.768C41.9039 13 43.2319 12.36 44.9279 11.848C46.6559 11.336 48.5759 11.08 50.6879 11.08C54.9759 11.08 58.1919 11.976 60.3359 13.768C62.4799 15.56 63.5519 18.12 63.5519 21.448V35.224C63.5519 35.576 63.4239 35.88 63.1679 36.136C62.9119 36.392 62.6079 36.52 62.2559 36.52H53.8559C53.5039 36.52 53.1999 36.392 52.9439 36.136C52.6879 35.88 52.5599 35.576 52.5599 35.224V33.88C51.0559 35.96 48.8639 37 45.9839 37C43.1039 37 40.7839 36.28 39.0239 34.84C37.2959 33.368 36.4319 31.544 36.4319 29.368ZM49.0559 29.896C51.1359 29.896 52.1759 28.648 52.1759 26.152L49.3439 26.776C47.9359 27.096 47.2319 27.688 47.2319 28.552C47.2319 28.936 47.3919 29.256 47.7119 29.512C48.0319 29.768 48.4799 29.896 49.0559 29.896Z" fill="black"/>
<path d="M96.0734 19.672C95.5614 19.672 95.1134 19.864 94.7294 20.248C94.3774 20.632 94.2014 21.208 94.2014 21.976V35.224C94.2014 35.576 94.0734 35.88 93.8174 36.136C93.5614 36.392 93.2574 36.52 92.9054 36.52H84.4574C84.1054 36.52 83.8014 36.392 83.5454 36.136C83.2894 35.88 83.1614 35.576 83.1614 35.224V22.312C83.1614 20.552 82.5214 19.672 81.2414 19.672C80.6974 19.672 80.2334 19.88 79.8494 20.296C79.4974 20.68 79.3214 21.224 79.3214 21.928V35.224C79.3214 35.576 79.1934 35.88 78.9374 36.136C78.6814 36.392 78.3774 36.52 78.0254 36.52H69.3854C69.0334 36.52 68.7294 36.392 68.4734 36.136C68.2174 35.88 68.0894 35.576 68.0894 35.224V12.856C68.0894 12.504 68.2174 12.2 68.4734 11.944C68.7294 11.688 69.0334 11.56 69.3854 11.56H77.3054C77.6574 11.56 77.9614 11.688 78.2174 11.944C78.4734 12.2 78.6014 12.504 78.6014 12.856V14.44C79.2414 13.608 80.1534 12.856 81.3374 12.184C82.6494 11.448 84.1214 11.08 85.7534 11.08C89.2734 11.08 91.6414 12.392 92.8574 15.016C93.6254 13.896 94.6814 12.968 96.0254 12.232C97.3694 11.464 98.7614 11.08 100.201 11.08C102.793 11.08 104.905 11.992 106.537 13.816C108.201 15.64 109.033 18.36 109.033 21.976V35.224C109.033 35.576 108.905 35.88 108.649 36.136C108.393 36.392 108.089 36.52 107.737 36.52H99.2894C98.9374 36.52 98.6334 36.392 98.3774 36.136C98.1214 35.88 97.9934 35.576 97.9934 35.224V22.312C97.9934 20.552 97.3534 19.672 96.0734 19.672Z" fill="black"/>
<path d="M138.949 26.872H124.645V27.112C124.645 29.064 125.269 30.04 126.517 30.04C126.869 30.04 127.301 29.784 127.813 29.272C128.325 28.76 128.885 28.504 129.493 28.504H138.565C139.269 28.504 139.621 28.856 139.621 29.56C139.621 31.128 138.437 32.76 136.069 34.456C133.733 36.152 130.549 37 126.517 37C122.517 37 119.237 35.96 116.677 33.88C114.149 31.768 112.885 28.872 112.885 25.192V22.888C112.885 19.4 114.181 16.568 116.773 14.392C119.365 12.184 122.757 11.08 126.949 11.08C131.173 11.08 134.437 12.312 136.741 14.776C139.077 17.24 140.245 20.36 140.245 24.136V25.576C140.245 25.928 140.117 26.232 139.861 26.488C139.605 26.744 139.301 26.872 138.949 26.872ZM128.485 20.68C128.485 18.76 127.845 17.8 126.565 17.8C125.285 17.8 124.645 18.76 124.645 20.68V20.872H128.485V20.68Z" fill="black"/>
<path d="M157.604 29.608C157.604 29.288 157.524 29.032 157.364 28.84C156.948 28.328 155.412 27.832 152.756 27.352C150.1 26.84 147.94 25.96 146.276 24.712C144.644 23.432 143.828 21.656 143.828 19.384C143.828 17.112 144.916 15.16 147.092 13.528C149.268 11.896 152.196 11.08 155.876 11.08C159.588 11.08 162.628 11.848 164.996 13.384C167.364 14.92 168.548 16.472 168.548 18.04C168.548 18.392 168.436 18.696 168.212 18.952C168.02 19.208 167.78 19.336 167.492 19.336H159.428C158.948 19.336 158.356 19.08 157.652 18.568C156.948 18.056 156.42 17.8 156.068 17.8C155.332 17.8 154.964 18.056 154.964 18.568C154.964 18.888 155.044 19.144 155.204 19.336C155.62 19.816 157.364 20.28 160.436 20.728C163.508 21.176 165.796 22.168 167.3 23.704C168.836 25.208 169.604 26.888 169.604 28.744C169.604 31.336 168.436 33.368 166.1 34.84C163.764 36.312 160.452 37.048 156.164 37.048C153.892 37.048 151.876 36.792 150.116 36.28C148.356 35.768 147.012 35.128 146.084 34.36C144.26 32.856 143.348 31.448 143.348 30.136C143.348 29.784 143.46 29.48 143.684 29.224C143.908 28.968 144.18 28.84 144.5 28.84H152.852C153.3 28.84 153.876 29.096 154.58 29.608C155.316 30.088 156.004 30.328 156.644 30.328C157.284 30.328 157.604 30.088 157.604 29.608Z" fill="black"/>
<path d="M201.309 22.168V25.96C201.309 29.544 200.349 32.28 198.429 34.168C196.509 36.056 194.157 37 191.373 37C188.621 37 186.413 36.248 184.749 34.744V44.344C184.749 44.696 184.621 45 184.365 45.256C184.109 45.512 183.805 45.64 183.453 45.64H174.573C174.221 45.64 173.917 45.512 173.661 45.256C173.405 45 173.277 44.696 173.277 44.344V12.856C173.277 12.504 173.405 12.2 173.661 11.944C173.917 11.688 174.221 11.56 174.573 11.56H182.733C183.085 11.56 183.389 11.688 183.645 11.944C183.901 12.2 184.029 12.504 184.029 12.856V14.296C185.693 12.152 188.045 11.08 191.085 11.08C194.125 11.08 196.589 11.992 198.477 13.816C200.365 15.608 201.309 18.392 201.309 22.168ZM184.749 22.456V26.008C184.845 27.608 185.645 28.408 187.149 28.408C188.749 28.408 189.549 27.48 189.549 25.624V22.456C189.549 20.6 188.749 19.672 187.149 19.672C185.549 19.672 184.749 20.6 184.749 22.456Z" fill="black"/>
<path d="M215.274 36.52H206.682C206.33 36.52 206.026 36.392 205.77 36.136C205.514 35.88 205.386 35.576 205.386 35.224V12.856C205.386 12.504 205.514 12.2 205.77 11.944C206.026 11.688 206.33 11.56 206.682 11.56H215.274C215.626 11.56 215.93 11.688 216.186 11.944C216.442 12.2 216.57 12.504 216.57 12.856V35.224C216.57 35.576 216.442 35.88 216.186 36.136C215.93 36.392 215.626 36.52 215.274 36.52ZM216.33 2.296V8.104C216.33 8.456 216.202 8.76 215.946 9.016C215.69 9.272 215.386 9.4 215.034 9.4H206.922C206.57 9.4 206.266 9.272 206.01 9.016C205.754 8.76 205.626 8.456 205.626 8.104V2.296C205.626 1.944 205.754 1.64 206.01 1.384C206.266 1.128 206.57 1 206.922 1H215.034C215.386 1 215.69 1.128 215.946 1.384C216.202 1.64 216.33 1.944 216.33 2.296Z" fill="black"/>
<path d="M220.651 24.568V22.12C220.651 18.536 221.611 15.8 223.531 13.912C225.451 12.024 227.899 11.08 230.875 11.08C233.851 11.08 236.203 12.168 237.931 14.344V12.856C237.931 12.504 238.059 12.2 238.315 11.944C238.571 11.688 238.875 11.56 239.227 11.56H247.627C247.979 11.56 248.283 11.688 248.539 11.944C248.795 12.2 248.923 12.504 248.923 12.856L248.971 35.704C248.971 39.544 247.723 42.392 245.227 44.248C242.731 46.136 239.451 47.08 235.387 47.08C232.859 47.08 230.603 46.728 228.619 46.024C226.635 45.352 225.147 44.52 224.155 43.528C222.139 41.544 221.131 39.864 221.131 38.488C221.131 38.136 221.259 37.832 221.515 37.576C221.771 37.32 222.075 37.192 222.427 37.192H231.787C232.363 37.192 232.827 37.544 233.179 38.248C233.563 38.984 234.219 39.352 235.147 39.352C236.523 39.352 237.211 38.488 237.211 36.76V33.352C235.643 34.728 233.419 35.416 230.539 35.416C227.691 35.416 225.323 34.552 223.435 32.824C221.579 31.096 220.651 28.344 220.651 24.568ZM234.811 27.064C236.315 27.064 237.115 26.264 237.211 24.664V22.072C237.115 20.472 236.315 19.672 234.811 19.672C233.211 19.672 232.411 20.6 232.411 22.456V24.28C232.411 26.136 233.211 27.064 234.811 27.064Z" fill="black"/>
<path d="M31.864 4.216V23.896C31.864 28.248 30.408 31.528 27.496 33.736C24.616 35.912 20.968 37 16.552 37C12.136 37 8.44 35.944 5.464 33.832C2.488 31.72 1 28.856 1 25.24C1 24.952 1.096 24.712 1.288 24.52C1.512 24.296 1.768 24.184 2.056 24.184H11.848C12.36 24.184 12.744 24.312 13 24.568C13.288 24.792 13.576 25.224 13.864 25.864C14.152 26.472 14.488 26.92 14.872 27.208C15.288 27.496 15.864 27.64 16.6 27.64C18.488 27.64 19.432 26.344 19.432 23.752V12.664H5.176C4.824 12.664 4.52 12.536 4.264 12.28C4.008 12.024 3.88 11.72 3.88 11.368V4.216C3.88 3.864 4.008 3.56 4.264 3.304C4.52 3.048 4.824 2.92 5.176 2.92H30.568C30.92 2.92 31.224 3.048 31.48 3.304C31.736 3.56 31.864 3.864 31.864 4.216Z" stroke="white" stroke-width="2" mask="url(#path-1-outside-1_227_58)"/>
<path d="M36.4319 29.368C36.4319 25.048 39.9359 22.28 46.9439 21.064L52.0319 20.248C52.0319 19.288 51.9519 18.648 51.7919 18.328C51.6319 17.976 51.2479 17.8 50.6399 17.8C50.0639 17.8 49.4879 18.056 48.9119 18.568C48.3359 19.08 47.7919 19.336 47.2799 19.336H39.1199C38.4159 19.336 38.0639 19 38.0639 18.328C38.0639 17.624 38.3039 16.888 38.7839 16.12C39.2959 15.32 40.0159 14.536 40.9439 13.768C41.9039 13 43.2319 12.36 44.9279 11.848C46.6559 11.336 48.5759 11.08 50.6879 11.08C54.9759 11.08 58.1919 11.976 60.3359 13.768C62.4799 15.56 63.5519 18.12 63.5519 21.448V35.224C63.5519 35.576 63.4239 35.88 63.1679 36.136C62.9119 36.392 62.6079 36.52 62.2559 36.52H53.8559C53.5039 36.52 53.1999 36.392 52.9439 36.136C52.6879 35.88 52.5599 35.576 52.5599 35.224V33.88C51.0559 35.96 48.8639 37 45.9839 37C43.1039 37 40.7839 36.28 39.0239 34.84C37.2959 33.368 36.4319 31.544 36.4319 29.368ZM49.0559 29.896C51.1359 29.896 52.1759 28.648 52.1759 26.152L49.3439 26.776C47.9359 27.096 47.2319 27.688 47.2319 28.552C47.2319 28.936 47.3919 29.256 47.7119 29.512C48.0319 29.768 48.4799 29.896 49.0559 29.896Z" stroke="white" stroke-width="2" mask="url(#path-1-outside-1_227_58)"/>
<path d="M96.0734 19.672C95.5614 19.672 95.1134 19.864 94.7294 20.248C94.3774 20.632 94.2014 21.208 94.2014 21.976V35.224C94.2014 35.576 94.0734 35.88 93.8174 36.136C93.5614 36.392 93.2574 36.52 92.9054 36.52H84.4574C84.1054 36.52 83.8014 36.392 83.5454 36.136C83.2894 35.88 83.1614 35.576 83.1614 35.224V22.312C83.1614 20.552 82.5214 19.672 81.2414 19.672C80.6974 19.672 80.2334 19.88 79.8494 20.296C79.4974 20.68 79.3214 21.224 79.3214 21.928V35.224C79.3214 35.576 79.1934 35.88 78.9374 36.136C78.6814 36.392 78.3774 36.52 78.0254 36.52H69.3854C69.0334 36.52 68.7294 36.392 68.4734 36.136C68.2174 35.88 68.0894 35.576 68.0894 35.224V12.856C68.0894 12.504 68.2174 12.2 68.4734 11.944C68.7294 11.688 69.0334 11.56 69.3854 11.56H77.3054C77.6574 11.56 77.9614 11.688 78.2174 11.944C78.4734 12.2 78.6014 12.504 78.6014 12.856V14.44C79.2414 13.608 80.1534 12.856 81.3374 12.184C82.6494 11.448 84.1214 11.08 85.7534 11.08C89.2734 11.08 91.6414 12.392 92.8574 15.016C93.6254 13.896 94.6814 12.968 96.0254 12.232C97.3694 11.464 98.7614 11.08 100.201 11.08C102.793 11.08 104.905 11.992 106.537 13.816C108.201 15.64 109.033 18.36 109.033 21.976V35.224C109.033 35.576 108.905 35.88 108.649 36.136C108.393 36.392 108.089 36.52 107.737 36.52H99.2894C98.9374 36.52 98.6334 36.392 98.3774 36.136C98.1214 35.88 97.9934 35.576 97.9934 35.224V22.312C97.9934 20.552 97.3534 19.672 96.0734 19.672Z" stroke="white" stroke-width="2" mask="url(#path-1-outside-1_227_58)"/>
<path d="M138.949 26.872H124.645V27.112C124.645 29.064 125.269 30.04 126.517 30.04C126.869 30.04 127.301 29.784 127.813 29.272C128.325 28.76 128.885 28.504 129.493 28.504H138.565C139.269 28.504 139.621 28.856 139.621 29.56C139.621 31.128 138.437 32.76 136.069 34.456C133.733 36.152 130.549 37 126.517 37C122.517 37 119.237 35.96 116.677 33.88C114.149 31.768 112.885 28.872 112.885 25.192V22.888C112.885 19.4 114.181 16.568 116.773 14.392C119.365 12.184 122.757 11.08 126.949 11.08C131.173 11.08 134.437 12.312 136.741 14.776C139.077 17.24 140.245 20.36 140.245 24.136V25.576C140.245 25.928 140.117 26.232 139.861 26.488C139.605 26.744 139.301 26.872 138.949 26.872ZM128.485 20.68C128.485 18.76 127.845 17.8 126.565 17.8C125.285 17.8 124.645 18.76 124.645 20.68V20.872H128.485V20.68Z" stroke="white" stroke-width="2" mask="url(#path-1-outside-1_227_58)"/>
<path d="M157.604 29.608C157.604 29.288 157.524 29.032 157.364 28.84C156.948 28.328 155.412 27.832 152.756 27.352C150.1 26.84 147.94 25.96 146.276 24.712C144.644 23.432 143.828 21.656 143.828 19.384C143.828 17.112 144.916 15.16 147.092 13.528C149.268 11.896 152.196 11.08 155.876 11.08C159.588 11.08 162.628 11.848 164.996 13.384C167.364 14.92 168.548 16.472 168.548 18.04C168.548 18.392 168.436 18.696 168.212 18.952C168.02 19.208 167.78 19.336 167.492 19.336H159.428C158.948 19.336 158.356 19.08 157.652 18.568C156.948 18.056 156.42 17.8 156.068 17.8C155.332 17.8 154.964 18.056 154.964 18.568C154.964 18.888 155.044 19.144 155.204 19.336C155.62 19.816 157.364 20.28 160.436 20.728C163.508 21.176 165.796 22.168 167.3 23.704C168.836 25.208 169.604 26.888 169.604 28.744C169.604 31.336 168.436 33.368 166.1 34.84C163.764 36.312 160.452 37.048 156.164 37.048C153.892 37.048 151.876 36.792 150.116 36.28C148.356 35.768 147.012 35.128 146.084 34.36C144.26 32.856 143.348 31.448 143.348 30.136C143.348 29.784 143.46 29.48 143.684 29.224C143.908 28.968 144.18 28.84 144.5 28.84H152.852C153.3 28.84 153.876 29.096 154.58 29.608C155.316 30.088 156.004 30.328 156.644 30.328C157.284 30.328 157.604 30.088 157.604 29.608Z" stroke="white" stroke-width="2" mask="url(#path-1-outside-1_227_58)"/>
<path d="M201.309 22.168V25.96C201.309 29.544 200.349 32.28 198.429 34.168C196.509 36.056 194.157 37 191.373 37C188.621 37 186.413 36.248 184.749 34.744V44.344C184.749 44.696 184.621 45 184.365 45.256C184.109 45.512 183.805 45.64 183.453 45.64H174.573C174.221 45.64 173.917 45.512 173.661 45.256C173.405 45 173.277 44.696 173.277 44.344V12.856C173.277 12.504 173.405 12.2 173.661 11.944C173.917 11.688 174.221 11.56 174.573 11.56H182.733C183.085 11.56 183.389 11.688 183.645 11.944C183.901 12.2 184.029 12.504 184.029 12.856V14.296C185.693 12.152 188.045 11.08 191.085 11.08C194.125 11.08 196.589 11.992 198.477 13.816C200.365 15.608 201.309 18.392 201.309 22.168ZM184.749 22.456V26.008C184.845 27.608 185.645 28.408 187.149 28.408C188.749 28.408 189.549 27.48 189.549 25.624V22.456C189.549 20.6 188.749 19.672 187.149 19.672C185.549 19.672 184.749 20.6 184.749 22.456Z" stroke="white" stroke-width="2" mask="url(#path-1-outside-1_227_58)"/>
<path d="M215.274 36.52H206.682C206.33 36.52 206.026 36.392 205.77 36.136C205.514 35.88 205.386 35.576 205.386 35.224V12.856C205.386 12.504 205.514 12.2 205.77 11.944C206.026 11.688 206.33 11.56 206.682 11.56H215.274C215.626 11.56 215.93 11.688 216.186 11.944C216.442 12.2 216.57 12.504 216.57 12.856V35.224C216.57 35.576 216.442 35.88 216.186 36.136C215.93 36.392 215.626 36.52 215.274 36.52ZM216.33 2.296V8.104C216.33 8.456 216.202 8.76 215.946 9.016C215.69 9.272 215.386 9.4 215.034 9.4H206.922C206.57 9.4 206.266 9.272 206.01 9.016C205.754 8.76 205.626 8.456 205.626 8.104V2.296C205.626 1.944 205.754 1.64 206.01 1.384C206.266 1.128 206.57 1 206.922 1H215.034C215.386 1 215.69 1.128 215.946 1.384C216.202 1.64 216.33 1.944 216.33 2.296Z" stroke="white" stroke-width="2" mask="url(#path-1-outside-1_227_58)"/>
<path d="M220.651 24.568V22.12C220.651 18.536 221.611 15.8 223.531 13.912C225.451 12.024 227.899 11.08 230.875 11.08C233.851 11.08 236.203 12.168 237.931 14.344V12.856C237.931 12.504 238.059 12.2 238.315 11.944C238.571 11.688 238.875 11.56 239.227 11.56H247.627C247.979 11.56 248.283 11.688 248.539 11.944C248.795 12.2 248.923 12.504 248.923 12.856L248.971 35.704C248.971 39.544 247.723 42.392 245.227 44.248C242.731 46.136 239.451 47.08 235.387 47.08C232.859 47.08 230.603 46.728 228.619 46.024C226.635 45.352 225.147 44.52 224.155 43.528C222.139 41.544 221.131 39.864 221.131 38.488C221.131 38.136 221.259 37.832 221.515 37.576C221.771 37.32 222.075 37.192 222.427 37.192H231.787C232.363 37.192 232.827 37.544 233.179 38.248C233.563 38.984 234.219 39.352 235.147 39.352C236.523 39.352 237.211 38.488 237.211 36.76V33.352C235.643 34.728 233.419 35.416 230.539 35.416C227.691 35.416 225.323 34.552 223.435 32.824C221.579 31.096 220.651 28.344 220.651 24.568ZM234.811 27.064C236.315 27.064 237.115 26.264 237.211 24.664V22.072C237.115 20.472 236.315 19.672 234.811 19.672C233.211 19.672 232.411 20.6 232.411 22.456V24.28C232.411 26.136 233.211 27.064 234.811 27.064Z" stroke="white" stroke-width="2" mask="url(#path-1-outside-1_227_58)"/>
</svg>
