<svg width="48" height="50" viewBox="0 0 48 50" fill="none" xmlns="http://www.w3.org/2000/svg">
<rect width="48" height="49.6" rx="4" fill="white"/>
<path d="M44 6.32118V29.4198C44 34.5277 42.113 38.3775 38.339 40.9691C34.6065 43.5231 29.8787 44.8 24.1555 44.8C18.4323 44.8 13.6423 43.5606 9.78538 41.0817C5.92846 38.6029 4 35.2414 4 30.9972C4 30.6592 4.12442 30.3775 4.37325 30.1522C4.66356 29.8893 4.99533 29.7578 5.36858 29.7578H18.0591C18.7227 29.7578 19.2203 29.908 19.5521 30.2085C19.9254 30.4714 20.2986 30.9785 20.6719 31.7296C21.0451 32.4432 21.4806 32.9691 21.9782 33.3071C22.5174 33.6451 23.2639 33.8141 24.2177 33.8141C26.6646 33.8141 27.888 32.293 27.888 29.2508V16.2367H9.41213C8.95594 16.2367 8.56195 16.0864 8.23017 15.786C7.89839 15.4855 7.7325 15.1287 7.7325 14.7155V6.32118C7.7325 5.90803 7.89839 5.55122 8.23017 5.25075C8.56195 4.95028 8.95594 4.80005 9.41213 4.80005H42.3204C42.7766 4.80005 43.1706 4.95028 43.5023 5.25075C43.8341 5.55122 44 5.90803 44 6.32118Z" fill="black"/>
</svg>
